<?xml version="1.0" standalone="no"?> <!DOCTYPE svg PUBLIC "-//W3C//DTD SVG 1.0//EN" "http://www.w3.org/TR/2001/REC-SVG-20010904/DTD/svg10.dtd" > <svg xmlns="http://www.w3.org/2000/svg" width="100%" height="100%">
<defs >
<font id="sar" horiz-adv-x="886" ><font-face
    font-family="Sabon"
    units-per-em="2048"
    panose-1="2 0 5 3 0 0 0 0 0 0"
    ascent="1934"
    descent="-467"
    alphabetic="0" />
<missing-glyph horiz-adv-x="278" />
<glyph unicode=" " glyph-name="space" horiz-adv-x="569" />
<glyph unicode="!" glyph-name="exclam" horiz-adv-x="681" d="M365 385H317L244 885Q213 1079 213 1169Q213 1211 217 1241T233 1305T272 1356T340 1374Q382 1374 409 1356T449 1305T465 1242T469 1169Q469 1079 438 885L365 385ZM342 -31Q288 -31 248 8T207
102T247 198T342 240T436 199T477 102T438 8T342 -31Z" />
<glyph unicode="&quot;" glyph-name="quotedbl" horiz-adv-x="1138" d="M688 934L657 1237Q649 1307 649 1327Q649 1430 737 1430T825 1327Q825 1307 817 1237L786 934Q783 906 772 894T737 881T702 893T688 934ZM352 934L322 1237Q313 1300 313 1327Q313 1430
401 1430T489 1327Q489 1307 481 1237L451 934Q447 905 436 893T401 881T366 893T352 934Z" />
<glyph unicode="#" glyph-name="numbersign" horiz-adv-x="1138" d="M1018 557V446H791L727 0H600L664 446H399L336 0H209L272 446H59V557H289L332 856H113V967H346L410 1413H535L471 967H737L801 1413H926L862 967H1079V856H848L805 557H1018ZM723 856H457L414
557H680L723 856Z" />
<glyph unicode="$" glyph-name="dollar" horiz-adv-x="1138" d="M915 1423L932 1151H883Q861 1273 796 1333T614 1395V817Q681 792 731 768T837 706T927 625T985 521T1008 387Q1008 208 899 93T614 -31V-182H532V-31Q432 -31 363 -14T174 47Q166 174 131 348L172
356Q214 206 304 117T532 35V639Q454 671 396 706T285 791T204 910T176 1063Q176 1225 276 1336T532 1460V1612H614V1460Q773 1452 915 1423ZM532 846V1395Q442 1378 391 1307T340 1135Q340 1032 388 968T532 846ZM614 608V35Q708 47 763 123T819 303Q819 420 770
488T614 608Z" />
<glyph unicode="%" glyph-name="percent" horiz-adv-x="2048" d="M721 1122Q721 1391 545 1391Q492 1391 455 1361T401 1281T376 1183T369 1083Q369 815 545 815Q588 815 620 836T671 888T701 963T717 1044T721 1122ZM1843 324Q1843 172 1742 71T1491 -31Q1348
-31 1256 64T1163 297Q1163 448 1265 549T1516 651Q1658 651 1750 557T1843 324ZM1679 330Q1679 598 1503 598Q1450 598 1413 568T1359 488T1334 391T1327 291Q1327 23 1503 23Q1556 23 1593 53T1647 133T1672 230T1679 330ZM885 1116Q885 965 783 864T532 762Q390
762 298 856T205 1090Q205 1241 307 1342T557 1444Q700 1444 792 1349T885 1116ZM594 -49H500L1427 1462H1522L594 -49Z" />
<glyph unicode="&amp;" glyph-name="ampersand" horiz-adv-x="1933" d="M1825 190L1858 160Q1780 52 1694 -10T1497 -72Q1457 -72 1419 -62T1352 -40T1289 1T1234 47T1182 104T1136 162T1090 226T1047 285Q1031 268 994 227T941 168T890 117T833 67T775 28T708
-5T637 -23T553 -31Q382 -31 260 89T137 381Q137 471 161 544T235 674T341 773T481 862Q315 973 315 1133Q315 1275 404 1359T633 1444Q752 1444 838 1380T924 1200Q924 1151 905 1108T851 1030T781 970T698 920Q936 741 1130 477Q1215 576 1317 727T1419 944Q1419
963 1410 976T1388 995T1356 1005T1323 1009T1292 1010V1063Q1421 1057 1552 1057Q1696 1057 1837 1063V1010Q1756 1010 1699 996T1603 957T1519 880T1435 773T1321 620T1165 428Q1192 397 1235 339T1312 239T1391 154T1490 87T1604 63Q1718 63 1825 190ZM289 494Q289
397 338 311T473 173T655 121Q697 121 733 127T802 150T858 181T913 226T962 275T1014 334Q918 463 799 582T526 834Q415 764 352 685T289 494ZM788 1188Q788 1280 743 1335T614 1391Q543 1391 497 1339T451 1208Q451 1105 553 1019Q578 998 649 948Q788 1039 788
1188Z" />
<glyph unicode="&apos;" glyph-name="quotesingle" horiz-adv-x="569" d="M236 934L205 1237Q197 1307 197 1327Q197 1430 285 1430T373 1327Q373 1307 365 1237L334 934Q331 906 320 894T285 881T250 893T236 934Z" />
<glyph unicode="(" glyph-name="parenleft" horiz-adv-x="681" d="M469 1460L516 1438Q394 1139 347 936T299 532Q299 318 353 83T510 -371L463 -395Q324 -198 244 39T164 532Q164 758 239 974T469 1460Z" />
<glyph unicode=")" glyph-name="parenright" horiz-adv-x="681" d="M172 1436L219 1460Q358 1263 438 1026T518 532Q518 307 442 91T213 -395L166 -373Q288 -74 335 129T383 532Q383 747 329 982T172 1436Z" />
<glyph unicode="*" glyph-name="asterisk" horiz-adv-x="1138" d="M553 1018L594 1032Q603 1015 635 969T683 887T700 813Q700 777 675 759T612 741T556 765T537 827Q537 890 553 1018ZM584 1147L547 1159V1311Q547 1367 564 1398T633 1430Q667 1430 689 1410T711
1356Q711 1331 689 1293T626 1201L584 1147ZM616 1071V1110Q629 1114 675 1128T758 1152T817 1161Q909 1161 909 1079Q909 1039 888 1018T827 997Q798 997 713 1032T616 1071ZM479 1067L512 1034Q501 1021 464 962T393 870T324 836Q293 836 268 861T242 918Q242
955 270 981T333 1018T414 1043T479 1067ZM500 1143L477 1114Q464 1119 430 1127T364 1145T300 1167T249 1201T229 1247Q229 1279 254 1303T313 1327Q336 1327 366 1303T416 1253T465 1189T500 1143Z" />
<glyph unicode="+" glyph-name="plus" horiz-adv-x="1138" d="M502 520V905H637V520H1022V385H637V0H502V385H117V520H502Z" />
<glyph unicode="," glyph-name="comma" horiz-adv-x="569" d="M121 -391L106 -342Q199 -326 270 -260T342 -104Q342 -48 315 -26T227 -4Q177 -4 142 31T106 115Q106 176 150 208T258 240Q320 240 368 201T440 108T463 0Q463 -84 436 -153T361 -268T253 -345T121 -391Z" />
<glyph unicode="-" glyph-name="hyphen" horiz-adv-x="681" d="M598 567L580 432Q457 438 334 438Q168 438 86 432L104 567Q227 561 352 561Q475 561 598 567Z" />
<glyph unicode="." glyph-name="period" horiz-adv-x="569" d="M285 -31Q231 -31 191 8T150 102T190 198T285 240Q338 240 379 199T420 102T380 8T285 -31Z" />
<glyph unicode="/" glyph-name="slash" horiz-adv-x="569" d="M113 -31H-23L457 1460H592L113 -31Z" />
<glyph unicode="0" glyph-name="zero" horiz-adv-x="1138" d="M1032 748Q1032 581 1001 445T919 223T805 77T677 -6T553 -31Q466 -31 392 10T266 120T178 279T124 468T106 666Q106 832 137 968T219 1191T334 1336T462 1419T586 1444Q673 1444 747 1403T872 1293T960
1134T1014 945T1032 748ZM844 758Q844 836 837 914T811 1078T763 1228T685 1335T573 1378Q282 1378 283 665Q283 658 283 655Q283 577 290 499T316 335T364 185T442 78T553 35Q844 35 844 749Q844 755 844 758Z" />
<glyph unicode="1" glyph-name="one" horiz-adv-x="1138" d="M694 1436V141Q694 92 723 73T827 53H920V0Q866 0 759 2T598 4Q482 4 260 0V53H373Q447 53 476 72T506 141V1257Q368 1178 213 1100L186 1149Q407 1261 674 1444L694 1436Z" />
<glyph unicode="2" glyph-name="two" horiz-adv-x="1138" d="M47 0V41Q702 612 702 991Q702 1055 687 1110T642 1211T561 1282T444 1309Q382 1309 327 1280T239 1218T159 1129Q151 1119 147 1114L109 1155Q150 1216 186 1259T277 1348T397 1419T541 1444Q699 1444
795 1336T891 1067Q891 983 859 893T782 730T663 569T533 425T392 285T270 164H936L981 270H1038L979 0H47Z" />
<glyph unicode="3" glyph-name="three" horiz-adv-x="1138" d="M371 696V750Q461 757 541 795T675 906T729 1071Q729 1182 665 1251T492 1321Q439 1321 390 1299T311 1252T233 1180L203 1219Q251 1274 288 1309T374 1378T478 1428T598 1444Q724 1444 808 1363T893
1153Q893 1034 808 937T596 791L600 786Q638 790 682 785T779 758T873 701T943 603T971 459Q971 397 952 332T889 201T783 84T625 1T418 -31Q287 -31 197 27T106 141Q106 168 127 187T172 207Q192 207 210 190T246 147T288 96T356 53T459 35Q604 35 693 132T782
377Q782 723 371 696Z" />
<glyph unicode="4" glyph-name="four" horiz-adv-x="1138" d="M47 449V530L748 1444H838V584H1038V449H838V0H662V449H47ZM662 584V1198H657L199 584H662Z" />
<glyph unicode="5" glyph-name="five" horiz-adv-x="1138" d="M291 889L485 1413H1004L961 1249H500L418 1036Q480 1005 522 982T619 925T710 859T785 784T847 695T884 593T899 471Q899 329 830 214T644 34T385 -31Q328 -31 263 -13T146 45T94 133Q94 165 113
180T158 195Q181 195 199 179T235 139T274 92T335 52T426 35Q568 35 651 135T735 381Q735 426 727 468T705 544T668 612T622 671T565 724T503 770T434 813T364 852T291 889Z" />
<glyph unicode="6" glyph-name="six" horiz-adv-x="1138" d="M1030 1444L1049 1403Q746 1327 542 1103T307 575L311 571Q375 672 454 724T653 776Q722 776 780 754T877 695T943 611T983 515T995 418Q995 364 980 305T930 186T845 78T719 0T551 -31Q443 -31 358
15T222 137T145 304T119 492Q119 622 158 743T263 958T411 1132T583 1269T757 1365T913 1424T1030 1444ZM819 344Q819 472 752 562T561 653Q459 653 383 592T307 432Q307 355 320 288T362 162T443 69T567 35Q692 35 755 124T819 344Z" />
<glyph unicode="7" glyph-name="seven" horiz-adv-x="1138" d="M119 1139L172 1413H1096L1112 1397L381 -31L293 0L946 1249H227L172 1130L119 1139Z" />
<glyph unicode="8" glyph-name="eight" horiz-adv-x="1138" d="M795 285Q795 345 770 401T699 503T609 583T508 651Q398 566 359 490T319 289Q319 183 384 109T555 35Q665 35 730 105T795 285ZM807 1114Q807 1237 745 1314T590 1391Q485 1391 423 1320T360 1133Q360
1086 376 1042T416 964T479 895T548 837T623 784Q807 919 807 1114ZM958 1122Q958 914 670 758Q727 727 778 688T873 598T944 487T971 362Q971 199 847 84T557 -31Q464 -31 388 0T265 82T193 189T168 301Q168 369 190 425T257 528T349 609T467 684Q408 724 369
756T286 835T220 937T197 1053Q197 1230 307 1337T594 1444Q694 1444 775 1408T907 1297T958 1122Z" />
<glyph unicode="9" glyph-name="nine" horiz-adv-x="1138" d="M109 -31L90 10Q393 87 597 311T831 838L827 842Q764 741 685 689T485 637Q416 637 358 659T261 718T195 802T156 898T143 995Q143 1049 158 1108T209 1227T293 1335T420 1413T588 1444Q675 1444 748
1414T870 1332T954 1213T1004 1072T1020 922Q1020 791 981 670T876 455T728 282T556 145T382 48T226 -11T109 -31ZM319 1069Q319 941 386 851T578 760Q680 760 755 821T831 981Q831 1059 818 1126T777 1251T696 1344T571 1378Q446 1378 383 1289T319 1069Z" />
<glyph unicode=":" glyph-name="colon" horiz-adv-x="569" d="M285 -31Q231 -31 191 8T150 102T190 198T285 240Q338 240 379 199T420 102T380 8T285 -31ZM340 578T285 578T190 617T150 711Q150 765 190 806T285 848Q338 848 379 807T420 711T380 617Z" />
<glyph unicode=";" glyph-name="semicolon" horiz-adv-x="569" d="M121 -391L106 -342Q199 -326 270 -260T342 -104Q342 -48 315 -26T227 -4Q177 -4 142 31T106 115Q106 176 150 208T258 240Q320 240 368 201T440 108T463 0Q463 -84 436 -153T361 -268T253 -345T121
-391ZM340 578T285 578T190 617T150 711Q150 765 190 806T285 848Q338 848 379 807T420 711T380 617Z" />
<glyph unicode="&lt;" glyph-name="less" horiz-adv-x="1138" d="M1022 135V-10L117 385V520L1022 915V770L272 453L1022 135Z" />
<glyph unicode="=" glyph-name="equal" horiz-adv-x="1138" d="M1022 725V590H117V725H1022ZM1022 315V180H117V315H1022Z" />
<glyph unicode="&gt;" glyph-name="greater" horiz-adv-x="1138" d="M117 135L866 453L117 770V915L1022 520V385L117 -10V135Z" />
<glyph unicode="?" glyph-name="question" horiz-adv-x="909" d="M367 385H313V754Q376 757 432 772T538 816T619 897T649 1018Q649 1112 583 1177T391 1243Q381 1243 361 1240T330 1237Q282 1237 254 1263T225 1337T255 1407T334 1430Q409 1430 476 1394T591
1301T674 1174T727 1036T745 909Q745 764 675 685T446 580Q403 573 385 548T367 451V385ZM360 -31Q306 -31 266 8T225 102T266 198T360 240Q414 240 455 199T496 102T456 8T360 -31Z" />
<glyph unicode="@" glyph-name="at" horiz-adv-x="1638" d="M666 578Q666 485 703 443T803 401Q831 401 863 418T929 474T990 564T1034 694T1051 860Q1051 999 963 999Q922 999 872 970T776 889T698 755T666 578ZM1305 158L1331 92Q1203 33 1099 1T881 -31Q719
-31 582 15T354 136T197 305T103 494T74 678Q74 849 137 996T307 1245T557 1403T858 1460Q1054 1460 1216 1377T1471 1147T1565 819Q1565 752 1549 681T1498 541T1417 420T1305 334T1165 301Q1115 301 1075 321T1014 368T983 419T973 455H969Q938 409 870 359T721
305Q699 304 677 308T623 328T570 372T531 451T514 573Q514 613 525 665T559 777T618 892T699 994T806 1068T938 1096Q953 1096 966 1094T989 1090T1010 1082T1027 1072T1042 1059T1054 1047T1065 1031T1074 1016T1084 998L1092 983L1112 1067H1262L1128 539Q1116
493 1116 463Q1116 423 1135 395T1198 367Q1281 367 1348 441T1449 618T1483 819Q1483 895 1457 975T1376 1130T1249 1264T1074 1359T858 1395Q734 1395 625 1347T431 1208T299 975T250 657Q250 543 296 434T423 241T623 105T879 53Q968 53 1049 69T1179 104T1305
158Z" />
<glyph unicode="A" glyph-name="A" horiz-adv-x="1476" d="M774 1487L1165 408Q1171 391 1190 336T1222 244T1253 166T1282 109Q1324 53 1440 53V0Q1401 0 1322 2T1204 4Q1107 4 905 0V53H942Q1055 53 1055 121Q1055 154 1024 240L922 537H440L395 393Q340 211
340 150Q340 136 342 124T347 103T357 87T368 75T383 67T399 61T418 58T436 56T458 54T479 53H526V0Q486 0 406 2T285 4Q201 4 37 0V53Q131 64 164 88T236 199Q257 247 319 428L582 1159Q625 1285 625 1343Q625 1380 621 1397Q710 1438 739 1487H774ZM668 1223L469
621H891L672 1223H668Z" />
<glyph unicode="B" glyph-name="B" horiz-adv-x="1251" d="M461 717V233Q461 207 461 194T465 160T475 128T495 103T528 83T576 71T645 66Q715 66 772 84T865 132T925 200T959 279T969 358Q969 443 948 507T892 611T806 674T702 708T584 717H461ZM461 1360V782H539Q607
782 658 795T755 840T825 937T850 1094Q850 1162 834 1212T791 1291T724 1336T642 1358T547 1364Q523 1364 461 1360ZM74 0V53Q260 42 260 190V1229Q260 1255 257 1276T246 1312T230 1338T207 1355T181 1366T149 1372T114 1375T74 1376V1430Q103 1430 159 1428T244
1425H307Q371 1425 456 1427T573 1430Q627 1430 682 1424T806 1396T927 1340T1015 1243T1051 1098Q1051 1029 1023 972T945 877T840 813T721 772V768Q770 771 828 760T949 719T1064 648T1148 537T1182 385Q1182 214 1038 107T631 0Q583 0 487 2T342 4Q250 4 74
0Z" />
<glyph unicode="C" glyph-name="C" horiz-adv-x="1478" d="M1378 1352L1399 1059H1348Q1320 1231 1205 1313T909 1395Q834 1395 759 1376T605 1308T468 1187T370 1001T332 745Q332 594 383 461T518 235T714 89T942 35Q1095 35 1209 132T1354 389L1401 377L1354
78Q1289 38 1146 4T901 -31Q544 -31 332 180T119 739Q119 892 184 1028T356 1257T605 1405T895 1460Q1007 1460 1117 1433T1378 1352Z" />
<glyph unicode="D" glyph-name="D" horiz-adv-x="1593" d="M248 209V1202Q248 1252 238 1286T214 1337T175 1363T130 1374T78 1376Q65 1376 59 1376V1430Q139 1425 301 1425Q336 1425 453 1427T655 1430Q810 1430 943 1391T1173 1282T1339 1122T1441 927T1475
713Q1475 664 1467 610T1434 484T1372 347T1267 218T1116 106T906 29T631 0Q577 0 479 2T334 4Q245 4 59 0V53Q157 63 186 78Q238 103 246 184Q247 196 248 209ZM449 1356V242Q449 186 467 149T519 95T585 72T662 66Q790 66 892 103T1060 202T1169 348T1231 520T1249
705Q1249 896 1172 1045T949 1279T608 1364Q571 1364 541 1363T485 1359T449 1356Z" />
<glyph unicode="E" glyph-name="E" horiz-adv-x="1251" d="M461 1364V782H731Q755 782 776 786T812 795T840 811T861 830T877 852T887 875T894 899T899 921T901 942T903 958H944Q936 868 936 729Q936 701 940 619T944 502H903Q903 535 900 560T894 606T880 640T863
664T838 680T809 690T772 695T730 697T680 698H461V350Q461 293 462 262T467 195T480 142T503 107T541 82T596 71T672 66H799Q854 69 890 73T965 88T1030 115T1082 160T1128 227T1169 322L1219 313Q1159 128 1135 0Q1032 0 827 2T520 4Q217 4 66 0V53Q113 53 142
56T195 69T230 94T249 137T258 198T260 285V1194Q260 1238 258 1266T245 1314T224 1345T187 1363T137 1372T66 1376V1430Q203 1425 479 1425Q870 1425 1069 1430V1124L1028 1114Q1005 1256 931 1310T700 1364H461Z" />
<glyph unicode="F" glyph-name="F" horiz-adv-x="1140" d="M461 698V201Q461 171 466 148T478 109T500 83T528 67T563 58T602 55T647 53V0Q443 4 356 4Q274 4 66 0V53Q113 53 142 56T195 69T230 94T249 137T258 198T260 285V1194Q260 1238 258 1266T245 1314T224
1345T187 1363T137 1372T66 1376V1430Q138 1430 286 1428T510 1425Q885 1425 1067 1430L1079 1141L1032 1133Q1017 1263 944 1313T702 1364H461V782H702Q746 782 774 784T825 794T860 812T882 844T898 888T911 952H958Q950 874 950 729Q950 622 958 512H918Q901
610 887 636Q864 682 796 693Q763 698 711 698H461Z" />
<glyph unicode="G" glyph-name="G" horiz-adv-x="1593" d="M1407 1350L1442 1063H1397Q1358 1232 1229 1313T915 1395Q809 1395 717 1360T558 1262T441 1117T368 939T344 743Q344 609 384 483T498 257T683 96T930 35Q1102 35 1206 115V420Q1206 444 1203 464T1196
499T1182 525T1165 543T1142 556T1117 563T1087 567T1056 569T1020 569V623Q1260 618 1303 618Q1400 618 1552 623V569Q1525 569 1511 568T1473 560T1438 537T1417 493T1407 420V152L1438 121V86Q1109 -31 905 -31Q786 -31 681 -5T498 65T355 169T247 297T175 437T132
579T119 713Q119 871 178 1010T339 1248T582 1403T881 1460Q1110 1460 1407 1350Z" />
<glyph unicode="H" glyph-name="H" horiz-adv-x="1708" d="M440 782H1268V1229Q1268 1255 1265 1276T1254 1312T1238 1338T1215 1355T1189 1366T1156 1372T1121 1375T1081 1376V1430Q1263 1425 1384 1425Q1428 1425 1518 1427T1655 1430V1376Q1629 1376 1616 1375T1581
1372T1548 1366T1521 1356T1498 1338T1482 1312T1471 1276T1468 1229V201Q1468 171 1473 148T1485 109T1507 83T1535 67T1571 58T1610 55T1655 53V0Q1471 4 1378 4Q1295 4 1081 0V53Q1111 54 1126 54T1165 58T1201 66T1228 83T1251 109T1263 147T1268 201V698H440V201Q440
171 445 148T457 109T479 83T507 67T543 58T582 55T627 53V0Q576 0 485 2T350 4Q259 4 53 0V53Q83 54 98 54T137 58T173 66T200 83T223 109T235 147T240 201V1229Q240 1255 237 1276T226 1312T210 1338T187 1355T161 1366T128 1372T93 1375T53 1376V1430Q215 1425
336 1425Q455 1425 627 1430V1376Q601 1376 588 1375T553 1372T520 1366T493 1356T470 1338T454 1312T443 1276T440 1229V782Z" />
<glyph unicode="I" glyph-name="I" horiz-adv-x="679" d="M240 201V1229Q240 1255 237 1276T226 1312T210 1338T187 1355T161 1366T128 1372T93 1375T53 1376V1430Q215 1425 336 1425Q455 1425 627 1430V1376Q601 1376 588 1375T553 1372T520 1366T493 1356T470
1338T454 1312T443 1276T440 1229V201Q440 171 445 148T457 109T479 83T507 67T543 58T582 55T627 53V0Q576 0 485 2T350 4Q259 4 53 0V53Q83 54 98 54T137 58T173 66T200 83T223 109T235 147T240 201Z" />
<glyph unicode="J" glyph-name="J" horiz-adv-x="796" d="M557 1229V176Q557 76 551 6T530 -115T502 -193T463 -266Q421 -339 331 -387T143 -436Q57 -436 -5 -402T-68 -299Q-68 -256 -42 -232T18 -209Q45 -209 64 -228T84 -283Q84 -323 116 -347T195 -371Q221
-371 243 -362T280 -338T308 -298T328 -251T341 -193T350 -134T354 -70T356 -10T356 49V1229Q356 1271 346 1299T323 1342T282 1364T233 1373T170 1376V1430Q330 1425 453 1425Q573 1425 743 1430V1376Q717 1376 704 1375T669 1372T636 1366T610 1356T587 1338T571
1312T560 1276T557 1229Z" />
<glyph unicode="K" glyph-name="K" horiz-adv-x="1478" d="M449 711L930 1217Q1006 1293 1006 1329Q1006 1346 997 1356T968 1370T934 1375T891 1376V1430Q1038 1425 1155 1425Q1242 1425 1352 1430V1376Q1304 1376 1271 1370T1195 1343T1103 1280T985 1165L635
799Q697 730 827 585T1059 329T1255 119Q1286 89 1323 73T1380 55T1432 53V0Q1300 4 1233 4Q1185 4 1085 0Q995 109 890 227T652 489T449 711ZM53 0V53Q83 54 98 54T137 58T173 66T200 83T223 109T235 147T240 201V1229Q240 1255 237 1276T226 1312T210 1338T187
1355T161 1366T128 1372T93 1375T53 1376V1430Q215 1425 336 1425Q476 1425 596 1430V1376Q565 1375 549 1374T509 1365T472 1342T450 1299T440 1229V201Q440 166 445 141T464 99T489 74T524 60T561 55T604 53V0Q568 0 483 2T350 4Q259 4 53 0Z" />
<glyph unicode="L" glyph-name="L" horiz-adv-x="1251" d="M1212 313L1137 0Q963 4 616 4Q254 4 74 0V53Q260 42 260 190V1229Q260 1255 257 1276T246 1312T230 1338T207 1355T181 1366T149 1372T114 1375T74 1376V1430Q234 1425 356 1425Q477 1425 647 1430V1376Q621
1376 608 1375T573 1372T540 1366T514 1356T491 1338T475 1312T464 1276T461 1229V281Q461 231 467 200T491 141T545 98T639 75T784 66Q962 66 1041 119T1167 322L1212 313Z" />
<glyph unicode="M" glyph-name="M" horiz-adv-x="2048" d="M481 1430L1032 281Q1091 403 1209 640T1418 1066T1585 1430Q1677 1425 1753 1425Q1782 1425 1842 1427T1933 1430V1376Q1822 1376 1790 1352Q1751 1322 1751 1229Q1751 1084 1755 920T1767 551T1778
252Q1779 208 1781 183T1792 133T1814 95T1853 71T1913 57T2001 53V0Q1944 0 1832 2T1663 4Q1564 4 1364 0V53Q1410 53 1431 53T1479 58T1522 72Q1550 87 1562 119T1575 211L1561 1188H1556L1073 184Q1020 65 993 -18H952Q916 63 879 143T796 320T721 476T634 652T557
806T468 982T387 1143H383L367 401Q367 388 366 338T365 272Q365 195 374 152T408 88Q431 67 469 60T573 53V0Q531 0 446 2T319 4Q227 4 47 0V53Q108 53 146 63T219 104T271 198T291 362Q293 445 299 624T309 940T313 1202Q313 1311 274 1343Q237 1376 133 1376V1430Q253
1425 350 1425Q372 1425 416 1427T481 1430Z" />
<glyph unicode="N" glyph-name="N" horiz-adv-x="1705" d="M1483 1165V-18H1436L365 1157V393Q365 336 366 298T372 222T383 162T404 118T434 86T477 67T534 56T608 53V0Q563 0 472 2T336 4Q245 4 63 0V53Q90 53 103 53T140 56T176 62T206 76T233 97T253 130T270
175T279 235T283 313V1137Q283 1267 224 1321T31 1376V1430Q136 1425 219 1425Q246 1425 303 1427T387 1430Q425 1374 493 1297T689 1083T895 860L1401 313V1128Q1401 1273 1353 1324T1153 1376V1430Q1310 1425 1438 1425Q1478 1425 1556 1427T1675 1430V1376Q1631
1376 1607 1374T1555 1360T1514 1326T1492 1264T1483 1165Z" />
<glyph unicode="O" glyph-name="O" horiz-adv-x="1705" d="M119 707Q119 848 172 982T318 1223T553 1395T856 1460Q1006 1460 1142 1399T1376 1238T1530 1002T1587 723Q1587 611 1554 501T1456 296T1304 127T1099 11T850 -31Q700 -31 564 30T330 191T176 427T119
707ZM344 766Q344 671 365 571T430 374T536 203T685 81T874 35Q1097 35 1229 209T1362 664Q1362 743 1347 826T1303 992T1228 1146T1125 1274T992 1362T831 1395Q609 1395 477 1221T344 766Z" />
<glyph unicode="P" glyph-name="P" horiz-adv-x="1138" d="M59 1376V1430Q152 1425 336 1425Q369 1425 443 1427T563 1430Q631 1430 698 1419T835 1378T957 1304T1043 1187T1077 1022Q1077 906 1012 810T846 663T637 612Q615 612 581 613T532 614V682Q559 678
610 678Q673 678 723 707T803 783T848 886T864 999Q864 1081 842 1146T786 1251T707 1317T618 1354T530 1364Q475 1364 440 1358V201Q440 166 445 141T465 99T492 74T531 60T575 55T629 53V0Q577 0 486 2T350 4Q259 4 53 0V53Q83 54 98 54T137 58T173 66T200 83T223
109T235 147T240 201V1176Q240 1297 206 1336T59 1376Z" />
<glyph unicode="Q" glyph-name="Q" horiz-adv-x="1705" d="M1626 -301L1645 -338Q1559 -449 1434 -449Q1369 -449 1306 -419T1185 -338T1071 -234T941 -123T793 -31Q657 -18 533 45T317 207T173 435T119 707T172 982T318 1223T553 1395T856 1460Q1006 1460 1142
1399T1376 1238T1530 1002T1587 723Q1587 567 1526 422T1346 165T1069 4Q1131 -32 1205 -93T1329 -199T1440 -278T1552 -313Q1602 -313 1626 -301ZM344 766Q344 671 365 571T430 374T536 203T685 81T874 35Q1097 35 1229 209T1362 664Q1362 743 1347 826T1303 992T1228
1146T1125 1274T992 1362T831 1395Q609 1395 477 1221T344 766Z" />
<glyph unicode="R" glyph-name="R" horiz-adv-x="1478" d="M647 676H461V201Q461 171 466 148T478 109T500 83T528 67T563 58T602 55T647 53V0Q597 0 506 2T371 4Q278 4 74 0V53Q260 42 260 190V1229Q260 1255 257 1276T246 1312T230 1338T207 1355T181 1366T149
1372T114 1375T74 1376V1430Q261 1425 385 1425Q414 1425 500 1427T659 1430Q770 1430 856 1406T994 1345T1077 1257T1121 1161T1133 1067Q1133 942 1050 848T842 717Q896 637 964 536T1067 381T1142 273T1214 182Q1273 117 1323 85T1446 53V0Q1420 0 1369 2T1292
4Q1234 4 1118 0Q1065 59 1015 123T912 264T826 393T733 540T647 676ZM920 1055Q920 1197 838 1280T584 1364Q535 1364 461 1352V752Q510 741 569 741Q659 741 729 769T839 843T900 943T920 1055Z" />
<glyph unicode="S" glyph-name="S" horiz-adv-x="1024" d="M135 39L94 338H141Q169 213 255 124T461 35Q580 35 660 111T741 307Q741 368 721 417T665 500T584 563T488 618T388 671T293 733T212 812T156 919T135 1059Q135 1251 257 1355T573 1460Q602 1460 637
1457T697 1450T762 1440T823 1430L856 1167H809Q792 1276 724 1335T545 1395Q431 1395 365 1322T299 1133Q299 1056 334 997T424 900T547 828T681 757T804 674T895 554T930 385Q930 289 889 209T780 77T626 -3T449 -31Q284 -31 135 39Z" />
<glyph unicode="T" glyph-name="T" horiz-adv-x="1363" d="M1331 1487L1313 1161H1257Q1252 1251 1244 1275Q1224 1333 1144 1343Q1122 1346 1094 1346H782V201Q782 171 787 148T799 109T821 83T849 67T885 58T924 55T969 53V0Q918 0 827 2T692 4Q601 4 395 0V53Q425
54 440 54T479 58T515 66T542 83T565 109T577 147T582 201V1346H313Q268 1346 237 1343T183 1329T147 1307T122 1272T105 1229T89 1173Q87 1165 86 1161H33L55 1487H96Q104 1467 117 1455T151 1438T186 1432T225 1430H1155Q1276 1430 1288 1487H1331Z" />
<glyph unicode="U" glyph-name="U" horiz-adv-x="1478" d="M1454 1430V1376Q1355 1376 1323 1328Q1295 1286 1293 1155Q1292 1126 1292 1047V457Q1292 238 1155 104T758 -31Q499 -31 357 97T211 481V1229Q211 1255 208 1276T197 1312T181 1338T158 1355T132 1366T100
1372T65 1375T25 1376V1430Q185 1425 307 1425Q428 1425 598 1430V1376Q556 1375 536 1374T487 1365T445 1342T422 1299T412 1229V532Q412 454 422 388T461 259T532 151T647 80T811 53Q881 53 938 68T1034 108T1100 167T1144 238T1169 315T1181 390T1184 457V1040Q1184
1100 1184 1138T1181 1214T1175 1272T1164 1313T1147 1342T1123 1359T1092 1369T1051 1373T999 1376Q992 1376 989 1376V1430Q1132 1425 1247 1425Q1282 1425 1350 1427T1454 1430Z" />
<glyph unicode="V" glyph-name="V" horiz-adv-x="1480" d="M725 -31L385 817Q370 855 312 996T227 1214Q190 1311 150 1343T12 1376V1430Q174 1425 301 1425Q344 1425 431 1427T561 1430V1376Q477 1371 473 1370Q450 1368 435 1356T420 1321Q420 1297 438 1240T476
1133T521 1019T551 946L823 246L979 651Q989 679 1046 824T1128 1049Q1133 1064 1146 1102T1168 1165T1184 1224T1192 1282Q1192 1298 1190 1310T1181 1332T1169 1348T1151 1359T1132 1367T1109 1371T1086 1373T1061 1375T1036 1376V1430Q1169 1425 1278 1425Q1363
1425 1468 1430V1376Q1377 1376 1331 1296Q1323 1282 1253 1105T1176 909L801 -31H725Z" />
<glyph unicode="W" glyph-name="W" horiz-adv-x="2048" d="M823 240L1030 684L786 1249Q750 1333 719 1354T592 1376V1430Q752 1425 877 1425Q912 1425 984 1427T1090 1430V1376Q977 1376 977 1325Q977 1305 999 1247L1133 905L1262 1186Q1298 1266 1298 1311Q1298
1330 1292 1342T1276 1362T1246 1372T1210 1375T1161 1376V1430Q1288 1425 1397 1425Q1424 1425 1485 1427T1575 1430V1376Q1500 1376 1461 1344T1389 1245L1180 807L1425 240L1767 1176Q1804 1273 1804 1309Q1804 1341 1774 1358T1651 1376V1430Q1776 1425 1880
1425Q1905 1425 1961 1427T2044 1430V1376Q2009 1376 1985 1367T1944 1336T1917 1294T1892 1235L1403 -31H1350L1073 588L784 -31H727L219 1214Q198 1264 185 1288T148 1336T91 1368T4 1376V1430Q154 1425 285 1425Q324 1425 406 1427T526 1430V1376Q399 1376 399
1329Q399 1292 422 1235L823 240Z" />
<glyph unicode="X" glyph-name="X" horiz-adv-x="1593" d="M543 1221L821 848L1036 1128Q1145 1271 1145 1325Q1145 1352 1113 1364T1010 1376V1430Q1153 1425 1266 1425Q1306 1425 1385 1427T1503 1430V1376Q1429 1376 1377 1357T1287 1304T1198 1204L872 782L1294
227Q1339 166 1403 102Q1436 70 1467 62T1546 53V0Q1495 0 1392 2T1237 4Q1164 4 1016 0V53Q1137 53 1137 80Q1137 94 1096 156L750 629L477 256Q474 251 455 224T423 179T399 136T387 96T401 72T445 59T493 54T547 53V0Q507 0 425 2T303 4Q219 4 47 0V53Q111 53
143 63Q176 73 196 83T263 139T371 266L698 696L258 1278Q186 1376 57 1376V1430Q235 1425 385 1425Q424 1425 506 1427T627 1430V1376Q483 1376 483 1335Q483 1302 543 1221Z" />
<glyph unicode="Y" glyph-name="Y" horiz-adv-x="1478" d="M868 729V201Q868 171 873 148T885 109T907 83T935 67T971 58T1010 55T1055 53V0Q849 4 764 4Q675 4 481 0V53Q511 54 526 54T565 58T601 66T628 83T651 109T663 147T668 201V696L240 1286Q197 1346 172
1357T49 1376V1430Q114 1425 334 1425Q376 1425 459 1427T584 1430V1376Q469 1376 469 1333Q469 1304 537 1206L823 803L1092 1169Q1093 1171 1113 1198T1141 1240T1160 1277T1171 1317Q1171 1358 1143 1367T1026 1376V1430Q1156 1425 1262 1425Q1289 1425 1345
1427T1430 1430V1376Q1399 1375 1375 1367T1328 1338T1295 1303T1260 1257L868 729Z" />
<glyph unicode="Z" glyph-name="Z" horiz-adv-x="1478" d="M1432 348L1337 0Q1224 0 1000 2T690 4Q584 4 369 2T47 0L1075 1346H412Q359 1346 318 1333T251 1301T207 1250T178 1193T158 1130H109Q113 1150 130 1226T159 1362T170 1460H223Q226 1444 246 1436Q261
1430 276 1430H1374L350 84H948Q1022 84 1075 89T1172 108T1244 141T1299 194T1344 265T1386 360L1432 348Z" />
<glyph unicode="[" glyph-name="bracketleft" horiz-adv-x="681" d="M203 -383V1448L217 1460Q319 1454 406 1454Q460 1454 522 1457T606 1460V1407H467Q424 1407 402 1404T368 1386T356 1357T354 1307V-244Q354 -314 384 -328T545 -342H606V-395Q508 -389 408
-389Q313 -389 217 -395L203 -383Z" />
<glyph unicode="\" glyph-name="backslash" horiz-adv-x="569" d="M592 -31H457L-23 1460H113L592 -31Z" />
<glyph unicode="]" glyph-name="bracketright" horiz-adv-x="681" d="M479 1448V-383L465 -395Q363 -389 276 -389Q222 -389 160 -392T76 -395V-342H215Q258 -342 280 -339T314 -321T326 -293T328 -242V1309Q328 1379 298 1393T137 1407H76V1460Q173 1454 274
1454Q369 1454 465 1460L479 1448Z" />
<glyph unicode="^" glyph-name="asciicircum" horiz-adv-x="1138" d="M276 666H137L508 1413H631L1001 666H862L569 1262L276 666Z" />
<glyph unicode="_" glyph-name="underscore" horiz-adv-x="1024" d="M1024 -256H0V-154H1024V-256Z" />
<glyph unicode="`" glyph-name="grave" horiz-adv-x="569" d="M584 1116H512L170 1329Q135 1350 135 1399Q135 1420 155 1440T201 1460Q212 1460 223 1457T242 1449T261 1436T277 1422T294 1405T309 1389L584 1116Z" />
<glyph unicode="a" glyph-name="a" horiz-adv-x="1024" d="M621 184V455Q601 447 544 430T443 396T352 354T277 293T250 213Q250 153 292 110T395 66Q438 66 479 84T542 118T608 173Q617 180 621 184ZM934 115L952 80Q914 45 891 26T828 -12T750 -31Q691 -31 659
14T623 121Q540 46 468 8T307 -31Q210 -31 148 27T86 168Q90 257 138 305Q190 358 360 422Q431 449 621 514V649Q621 735 571 780T422 825Q353 825 311 788T266 682Q266 642 230 619T152 596Q138 596 129 604T118 620T115 637Q115 676 130 707T181 768T251 817T350
870Q363 877 388 890T425 909T456 922T493 933T535 936Q585 936 640 918T740 858T784 764V197Q784 80 858 80Q905 80 934 115Z" />
<glyph unicode="b" glyph-name="b" horiz-adv-x="1138" d="M367 1536V788Q540 936 672 936Q786 936 874 875T1008 716T1053 506Q1053 406 1017 310T919 137T763 15T563 -31Q520 -31 483 -27T412 -12T361 5T313 25T279 41L217 -6L174 16Q203 201 203 381V1262Q203
1302 198 1328T188 1368T165 1394T137 1408T94 1421V1454Q224 1497 305 1542Q349 1565 350 1565Q367 1565 367 1536ZM367 729V231Q367 162 425 93T578 23Q657 23 718 59T816 154T870 281T889 420Q889 582 787 703T561 825Q510 825 465 800T367 729Z" />
<glyph unicode="c" glyph-name="c" horiz-adv-x="909" d="M823 217L858 182Q674 -31 459 -31Q355 -31 260 29T108 188T51 393Q51 503 89 603T194 776T355 892T559 936Q602 936 647 929T736 907T808 862T836 795Q836 758 815 732T758 705Q735 705 716 722T679 763T639
812T577 853T483 870Q420 870 368 837T283 752T233 639T215 518Q215 411 257 322T382 177T573 121Q646 121 702 144T823 217Z" />
<glyph unicode="d" glyph-name="d" horiz-adv-x="1138" d="M948 1536V176Q948 144 951 128T969 103T998 93T1049 92H1083V51H1081Q1034 42 936 10Q911 2 879 -9T829 -25T807 -31Q784 -31 784 25V119H780Q719 55 637 12T467 -31Q349 -31 261 33T129 196T86 414Q86
516 125 611T232 778T394 893T592 936Q697 936 784 899V1262Q784 1294 782 1316T774 1355T762 1381T741 1398T717 1409T683 1419Q679 1420 676 1421V1454Q806 1497 887 1542Q929 1565 932 1565Q948 1565 948 1536ZM784 213V682Q784 736 764 775T709 833T640 861T567
870Q510 870 458 848T361 782T289 662T262 485Q262 316 354 204T586 92Q643 92 713 127T784 213Z" />
<glyph unicode="e" glyph-name="e" horiz-adv-x="909" d="M809 565H233Q228 541 233 446Q243 298 328 195T535 92Q672 92 811 229L840 201Q758 93 668 31T461 -31Q383 -31 319 -8T214 56T144 143T99 242T77 337T70 416Q70 531 99 623T174 773T276 868T384 921T483
936Q547 936 607 916T717 857T797 755T829 614Q829 590 827 578L809 565ZM240 631H596Q630 631 641 645T653 682Q653 763 606 816T475 870Q382 870 320 806T240 631Z" />
<glyph unicode="f" glyph-name="f" horiz-adv-x="681" d="M393 905H653V795H393V102Q393 85 400 74T425 59T454 54T489 53H582V0Q406 4 319 4Q234 4 66 0V53H143Q194 53 211 71T229 119V795H86V829Q95 835 126 851T176 879T212 912T229 958Q229 1033 242 1109T294
1274T393 1423Q467 1499 536 1532T641 1565Q733 1565 733 1481Q733 1445 715 1423T662 1401Q632 1401 599 1415T530 1430Q393 1430 393 1198V905Z" />
<glyph unicode="g" glyph-name="g" horiz-adv-x="1024" d="M973 883V784L770 793Q823 728 823 637Q823 579 799 524T730 424T610 350T444 322Q394 322 332 334Q300 310 285 287T270 229Q270 135 414 135Q466 135 561 134T696 133Q835 133 906 85T977 -74Q977 -97
967 -131T934 -211T869 -301T769 -382T625 -443T434 -467Q251 -467 149 -398T47 -238Q47 -145 116 -84T287 -2V2Q213 24 160 69T106 180Q106 225 115 246Q136 259 175 280T243 319T285 348Q191 397 142 461T92 621Q92 760 192 848T475 936Q560 936 655 907Q660
906 679 901T706 893T730 887T759 881T787 877T820 873T854 872Q908 872 973 883ZM825 -166Q825 0 537 0Q506 0 490 0T441 -2T389 -7T341 -17T294 -33T256 -57T224 -91T205 -136T197 -193Q197 -294 274 -347T467 -401Q520 -401 577 -389T692 -352T787 -279T825
-166ZM659 614Q659 680 637 739T566 841T449 883Q362 883 315 812T268 649Q268 584 285 525T348 420T461 375Q559 375 609 443T659 614Z" />
<glyph unicode="h" glyph-name="h" horiz-adv-x="1138" d="M190 121V1262Q190 1294 188 1316T180 1355T168 1381T147 1398T123 1409T89 1419Q85 1420 82 1421V1454Q212 1497 293 1542Q335 1565 338 1565Q354 1565 354 1536V756Q355 757 377 780T427 827T491 876T576
919T670 936Q800 936 872 851T944 627V121Q944 101 950 88T963 68T986 58T1013 54T1047 53H1083V0Q1048 0 975 2T862 4Q789 4 641 0V53H678Q704 53 719 55T747 67T765 89T775 130T779 189T780 276V508Q780 561 777 598T763 679T731 749T672 794T580 813Q480 813
354 698V121Q354 101 360 88T373 68T396 58T423 54T457 53H494V0Q458 0 386 2T276 4Q203 4 55 0V53H92Q114 53 125 53T151 57T173 68T185 88T190 121Z" />
<glyph unicode="i" glyph-name="i" horiz-adv-x="569" d="M66 0V53H104Q127 53 137 53T163 57T185 68T197 88T203 121V676Q203 735 184 758T107 813Q100 817 96 819V852Q296 912 315 926Q334 936 352 936Q367 936 367 907V121Q367 101 373 88T386 68T409 58T436
54T469 53H504V0Q469 0 398 2T289 4Q216 4 66 0ZM385 1354Q385 1312 356 1282T285 1251Q245 1251 215 1282T184 1354Q184 1392 215 1422T285 1452Q325 1452 355 1424T385 1354Z" />
<glyph unicode="j" glyph-name="j" horiz-adv-x="569" d="M367 907V-78Q367 -250 278 -338Q224 -390 90 -448Q74 -455 45 -467L31 -420Q73 -400 102 -380T151 -335T180 -289T196 -233T202 -172T203 -98V676Q203 699 201 715T191 744T175 766T149 784T115 800T68
819V852Q139 865 216 889T315 926Q334 936 352 936Q367 936 367 907ZM385 1354Q385 1312 356 1282T285 1251Q245 1251 215 1282T184 1354Q184 1392 215 1422T285 1452Q325 1452 355 1424T385 1354Z" />
<glyph unicode="k" glyph-name="k" horiz-adv-x="1138" d="M1028 905V852Q951 852 895 824T774 737L547 532L893 150Q954 82 983 67T1083 49V0Q977 4 924 4Q876 4 786 0Q767 28 721 84L395 453H354V121Q354 101 360 88T373 68T396 58T423 54T457 53H494V0Q458
0 386 2T276 4Q203 4 55 0V53H92Q114 53 125 53T151 57T173 68T185 88T190 121V1262Q190 1294 188 1316T180 1355T168 1381T147 1398T123 1409T89 1419Q85 1420 82 1421V1454Q212 1497 293 1542Q335 1565 338 1565Q354 1565 354 1536V500L420 512L641 707Q671 733
696 763T721 811Q721 852 621 852V905Q763 901 838 901Q902 901 1028 905Z" />
<glyph unicode="l" glyph-name="l" horiz-adv-x="569" d="M66 0V53H104Q127 53 137 53T163 57T185 68T197 88T203 121V1262Q203 1302 198 1328T188 1368T165 1394T137 1408T94 1421V1454Q224 1497 305 1542Q349 1565 350 1565Q367 1565 367 1536V121Q367 101 373
88T386 68T409 58T436 54T469 53H504V0Q469 0 398 2T289 4Q216 4 66 0Z" />
<glyph unicode="m" glyph-name="m" horiz-adv-x="1703" d="M190 121V676Q190 698 189 714T179 744T167 765T144 784T119 800T84 819V852Q277 910 303 926Q321 936 340 936Q354 936 354 907V782Q470 864 515 887Q609 936 709 936Q792 936 848 897T926 778Q936 785
987 821T1058 867T1119 899T1198 928T1278 936Q1363 936 1419 894T1499 790T1522 647V121Q1522 101 1528 88T1541 68T1564 58T1591 54T1624 53H1655V0Q1623 0 1553 2T1444 4Q1369 4 1223 0V53H1260Q1282 53 1292 53T1318 57T1340 68T1352 88T1358 121V573Q1358
627 1351 668T1326 746T1271 804T1180 825Q1127 825 1057 793T938 727V121Q938 101 944 88T957 68T981 58T1009 54T1042 53H1079V0Q1044 0 971 2T860 4Q787 4 639 0V53H676Q698 53 708 53T734 57T756 68T768 88T774 121V573Q774 627 767 667T742 746T688 804T596
825Q543 825 473 793T354 727V121Q354 101 360 88T373 68T396 58T423 54T457 53H494V0Q458 0 386 2T276 4Q209 4 49 0V53H92Q114 53 125 53T151 57T173 68T185 88T190 121Z" />
<glyph unicode="n" glyph-name="n" horiz-adv-x="1138" d="M190 121V664Q190 719 168 744T72 799V838Q242 892 342 936Q354 936 354 915V782Q410 822 442 843T521 889T614 925T709 936Q832 936 888 858T944 649V121Q944 101 950 88T963 68T986 58T1013 54T1047
53H1083V0Q1048 0 976 2T866 4Q793 4 645 0V53H682Q704 53 714 53T740 57T762 68T774 88T780 121V651Q780 737 731 781T592 825Q547 825 480 796T354 727V121Q354 101 360 88T373 68T396 58T423 54T457 53H494V0Q458 0 386 2T276 4Q203 4 55 0V53H92Q114 53 125
53T151 57T173 68T185 88T190 121Z" />
<glyph unicode="o" glyph-name="o" horiz-adv-x="1138" d="M86 449Q86 580 145 691T313 869T555 936Q772 936 912 804T1053 457Q1053 327 991 215T819 36T582 -31Q445 -31 333 27T153 196T86 449ZM274 469Q274 402 292 328T346 184T442 69T580 23Q639 23 687 49T768
117T822 215T854 325T864 436Q864 489 853 547T818 665T760 774T672 852T557 883Q485 883 428 844T339 741T291 609T274 469Z" />
<glyph unicode="p" glyph-name="p" horiz-adv-x="1138" d="M367 8V-365Q367 -382 374 -393T399 -408T428 -413T463 -414H555V-467Q379 -463 293 -463T39 -467V-414H117Q168 -414 185 -396T203 -348V623Q203 660 198 687T185 730T164 758T140 774T111 786T82 799V829Q298
929 324 940Q326 940 333 944T344 948Q367 948 367 930V784Q534 936 676 936Q786 936 874 872T1007 708T1053 500Q1053 361 987 239T804 43T549 -31Q454 -31 367 8ZM889 416Q889 517 851 603T734 745T549 801Q503 801 453 780T367 733V176Q379 153 395 133T437
88T502 50T586 35Q643 35 693 57T778 118T839 205T877 308T889 416Z" />
<glyph unicode="q" glyph-name="q" horiz-adv-x="1138" d="M793 -348V86Q637 -31 500 -31Q376 -31 280 28T135 185T86 399Q86 508 130 609T244 781T405 894T586 936Q705 936 831 864L936 954L956 940V-365Q956 -382 964 -393T989 -408T1018 -413T1053 -414H1090V-467Q1024
-463 883 -463Q810 -463 616 -467V-414H707Q793 -414 793 -348ZM793 135V688Q793 743 726 806T563 870Q529 870 493 860T414 822T339 751T284 636T262 471Q262 374 304 285T426 138T604 80T793 135Z" />
<glyph unicode="r" glyph-name="r" horiz-adv-x="796" d="M49 0V53H104Q127 53 137 53T163 57T185 68T197 88T203 121V696Q203 714 196 728T174 752T148 767T119 779T96 788V819Q159 846 220 876T310 921T346 936Q365 936 365 909V725H369Q395 767 415 794T470
858T546 916T631 936T711 907T748 827Q748 784 721 754T651 723Q621 723 587 747T516 772Q501 772 478 762T429 734T385 680T367 602V121Q367 101 372 88T384 68T406 58T432 54T465 53H580V0Q354 4 293 4Q197 4 49 0Z" />
<glyph unicode="s" glyph-name="s" horiz-adv-x="796" d="M86 274L123 285Q145 175 210 105T381 35Q465 35 506 77T547 180Q547 229 523 266T459 326T372 371T276 417T189 473T125 556T100 674Q100 719 118 763T174 847T274 911T418 936Q536 936 651 877L666 668H618Q587
870 395 870Q329 870 283 834T236 735Q236 687 262 650T330 590T422 545T524 499T617 444T685 363T711 248Q711 196 690 148T627 59T516 -6T358 -31Q230 -31 109 39L86 274Z" />
<glyph unicode="t" glyph-name="t" horiz-adv-x="681" d="M338 795V252Q338 161 377 121T467 80Q542 80 610 139L641 109Q505 -31 369 -31Q272 -31 223 18T174 160V795H39V827Q48 834 76 855T112 883T144 909T177 939T208 971T242 1011T275 1056T313 1114H338V905H643V795H338Z"
/>
<glyph unicode="u" glyph-name="u" horiz-adv-x="1138" d="M944 868V113Q944 88 957 81T1001 74Q1013 74 1041 75T1083 76V33Q1024 28 926 5T788 -31L778 -25V141Q666 50 591 10T416 -31Q323 -31 257 31T190 213V737Q190 761 187 777T172 810T135 838T68 852V891Q107
892 213 898T332 905Q340 905 344 903T351 892T353 875T354 846V317Q354 80 532 80Q631 80 780 205V756Q780 763 777 769T767 780T752 791T733 801T711 809T685 818T660 825T633 833T608 840V877Q688 882 764 889T881 900T928 905Q939 905 941 897T944 868Z" />
<glyph unicode="v" glyph-name="v" horiz-adv-x="1024" d="M475 -31L197 694Q179 742 165 770T139 816T110 841T80 850T39 852V905Q173 901 244 901Q279 901 350 903T457 905V852Q385 852 363 843T340 797Q340 785 346 765T359 726T381 670T406 606L549 217L719
639Q758 739 760 797Q761 828 741 837T651 852V905Q749 901 799 901Q829 901 891 903T985 905V852Q919 852 886 818T821 705L526 -31H475Z" />
<glyph unicode="w" glyph-name="w" horiz-adv-x="1593" d="M475 -31L184 694Q162 753 147 784T112 831T77 849T27 852V905Q161 901 231 901Q268 901 336 903T434 905V852Q377 852 353 844T328 813Q328 792 344 752L559 201L733 651Q743 677 743 719Q743 842 596
852V905Q744 901 819 901Q853 901 920 903T1022 905V852Q1015 851 1000 851T977 849T956 847T936 842T922 834T911 821T907 803Q907 771 954 651L1124 201H1128L1303 647Q1335 740 1335 793Q1335 803 1333 810T1324 824T1313 834T1297 841T1281 846T1262 849T1245
850T1227 851T1212 852V905Q1340 901 1405 901Q1431 901 1484 903T1567 905V852Q1503 852 1471 818T1407 705L1118 -18L1044 -31L793 614L547 -18L475 -31Z" />
<glyph unicode="x" glyph-name="x" horiz-adv-x="1138" d="M39 0V53Q132 53 175 71T276 162L496 420Q484 435 361 597T184 813Q176 821 168 827T150 837T134 844T117 848T103 850T88 851T76 852V905Q214 901 287 901Q324 901 399 903T512 905V852Q486 852 472
852T440 848T414 838T406 819Q406 808 450 749T546 624T606 547Q621 568 676 630T771 743T811 811Q811 852 717 852V905Q865 901 938 901Q964 901 1017 903T1100 905V852Q1021 852 972 829T870 748L647 492Q670 468 749 365T899 171T985 72Q1015 53 1055 53H1100V0Q1060
0 983 2T868 4Q793 4 645 0V53Q680 53 694 53T726 57T748 66T754 84Q754 90 708 150T604 282T537 367Q527 353 468 287T358 159T307 86Q307 64 335 59T428 53V0Q302 4 236 4Q169 4 39 0Z" />
<glyph unicode="y" glyph-name="y" horiz-adv-x="1024" d="M35 852V905Q195 901 272 901Q303 901 364 903T457 905V852Q452 852 439 851T417 849T397 846T376 840T360 831T348 817T344 797Q344 764 443 520T551 246H555Q570 288 624 413T718 640T758 766Q758 796
748 815T718 841T683 850T643 852V905Q771 901 836 901Q887 901 989 905V852Q954 853 929 845T885 816T855 776T827 721L365 -365Q320 -467 233 -467Q188 -467 161 -439T133 -369Q133 -330 162 -298T231 -266Q260 -266 277 -272T315 -297Q360 -202 396 -120T446
-2L459 33Q459 34 391 209T249 569T164 776Q117 860 35 852Z" />
<glyph unicode="z" glyph-name="z" horiz-adv-x="909" d="M283 66H580Q663 67 697 99T811 268L854 258L797 0H45V16L592 840H356Q329 840 316 840T279 837T244 828T215 812T186 785T162 745T141 688H92L119 948H160Q160 918 186 912T297 905H825L283 66Z" />
<glyph unicode="{" glyph-name="braceleft" horiz-adv-x="681" d="M268 -94V287Q268 396 237 450T113 532Q205 560 236 614T268 778V1159Q268 1254 287 1314T349 1406T441 1449T569 1460V1432Q476 1411 440 1349T403 1171V809Q403 747 397 706T374 629T323 571T238
535V530Q290 517 323 495T373 436T397 359T403 256V-106Q403 -222 439 -284T569 -367V-395Q492 -395 442 -384T349 -342T288 -250T268 -94Z" />
<glyph unicode="|" glyph-name="bar" horiz-adv-x="454" d="M160 -31V1565H295V-31H160Z" />
<glyph unicode="}" glyph-name="braceright" horiz-adv-x="681" d="M414 1159V778Q414 669 445 615T569 532Q477 505 446 451T414 287V-94Q414 -189 395 -249T333 -341T241 -384T113 -395V-367Q206 -346 242 -284T279 -106V256Q279 318 285 359T308 436T359 494T444
530V535Q392 548 359 570T309 629T285 706T279 809V1171Q279 1287 243 1349T113 1432V1460Q190 1460 240 1449T333 1407T394 1315T414 1159Z" />
<glyph unicode="~" glyph-name="asciitilde" horiz-adv-x="1138" d="M969 596L1042 494Q1013 453 993 429T941 375T870 331T786 317Q732 317 673 338T570 385T463 431T342 453Q236 453 170 309L96 412Q188 588 352 588Q409 588 476 567T592 521T696 474T788 453Q843
453 883 490T969 596Z" />
</font>
</defs>
</svg>
